<svg id="SvgjsSvg1016" width="288" height="288" xmlns="http://www.w3.org/2000/svg" version="1.1" xmlns:xlink="http://www.w3.org/1999/xlink" xmlns:svgjs="http://svgjs.com/svgjs"><defs id="SvgjsDefs1017"></defs><g id="SvgjsG1018"><svg xmlns="http://www.w3.org/2000/svg" width="288" height="288" viewBox="0 0 400 400"><path fill-rule="evenodd" d="M179.297 1.465 C 111.889 16.357,73.842 95.089,90.191 185.853 C 98.003 229.219,113.250 238.463,168.396 233.266 C 179.862 232.185,184.882 232.033,190.271 232.605 C 194.575 233.062,199.670 233.073,203.516 232.634 C 207.616 232.166,215.702 232.248,227.026 232.873 C 268.215 235.144,282.279 231.265,293.174 214.626 C 310.937 187.499,312.708 119.741,296.752 77.772 C 276.113 23.484,226.252 -8.909,179.297 1.465 M226.563 60.897 C 237.438 69.158,244.739 79.522,251.255 95.946 C 257.553 111.822,258.847 113.219,264.558 110.299 C 267.498 108.795,275.338 101.084,278.548 96.538 C 280.807 93.339,283.695 94.186,286.704 98.931 C 294.236 110.808,286.864 131.280,273.915 134.447 L 269.417 135.547 266.059 145.832 C 252.093 188.608,223.958 218.229,197.252 218.271 C 170.791 218.313,142.535 188.520,128.513 145.795 L 125.149 135.547 121.551 134.629 C 107.075 130.936,99.172 107.291,109.095 97.368 L 111.084 95.379 113.806 98.023 C 129.975 113.727,168.793 101.925,192.709 74.034 L 195.881 70.334 200.089 71.571 C 212.873 75.331,224.734 84.825,231.766 96.927 C 236.062 104.321,236.332 104.321,234.778 96.934 C 231.575 81.706,221.292 66.256,209.180 58.472 C 205.132 55.871,205.029 55.624,206.403 51.825 L 207.337 49.242 214.020 52.844 C 217.696 54.826,223.340 58.449,226.563 60.897 M112.459 246.934 C 83.726 260.795,60.582 287.130,52.965 314.630 C 51.367 320.402,51.269 322.667,50.987 360.352 L 50.690 400.000 200.000 400.000 L 349.310 400.000 349.024 360.352 L 348.738 320.703 346.637 313.431 C 338.931 286.751,315.556 260.448,287.541 246.934 C 279.263 242.940,279.923 242.808,275.910 249.255 C 265.058 266.689,259.158 271.487,228.816 287.555 C 215.760 294.469,203.947 300.822,202.565 301.673 L 200.051 303.221 196.705 301.278 C 194.865 300.210,183.039 293.865,170.426 287.179 C 140.951 271.555,134.875 266.582,124.090 249.255 C 120.077 242.808,120.737 242.940,112.459 246.934 " fill="#0863e4" class="color000 svgShape" style="--darkreader-inline-fill: #17177c;" data-darkreader-inline-fill=""></path></svg></g></svg>