<svg id="SvgjsSvg1021" width="288" height="288" xmlns="http://www.w3.org/2000/svg" version="1.1" xmlns:xlink="http://www.w3.org/1999/xlink" xmlns:svgjs="http://svgjs.com/svgjs"><defs id="SvgjsDefs1022"></defs><g id="SvgjsG1023"><svg xmlns="http://www.w3.org/2000/svg" width="288" height="288" viewBox="0 0 400 400"><path fill-rule="evenodd" d="M178.516 1.473 C 154.477 10.192,134.236 29.518,129.269 48.493 C 127.727 54.384,128.080 77.678,129.879 88.792 L 130.911 95.161 128.346 97.960 C 123.736 102.990,125.361 118.134,131.959 131.641 C 133.639 135.078,136.286 141.934,137.842 146.875 C 153.208 195.664,191.630 218.747,224.781 199.105 C 240.104 190.026,263.281 154.309,263.281 139.774 C 263.281 139.201,264.839 135.554,266.742 131.670 C 270.841 123.308,272.581 116.994,273.199 108.236 L 273.652 101.805 270.772 98.617 L 267.892 95.428 269.143 86.581 C 272.068 65.894,271.480 51.049,267.387 42.188 C 257.218 20.177,199.655 -6.194,178.516 1.473 M153.053 198.915 C 147.437 205.682,118.647 220.827,96.135 228.857 C 63.298 240.571,47.556 260.857,40.927 300.000 C 37.470 320.415,39.938 363.123,45.293 375.564 C 47.744 381.257,88.159 391.632,125.000 396.026 C 151.946 399.240,159.681 399.609,200.000 399.609 C 240.319 399.609,248.054 399.240,275.000 396.026 C 311.578 391.663,351.609 381.417,354.444 375.691 C 359.929 364.613,362.605 320.858,359.073 300.000 C 352.359 260.350,337.003 240.893,302.575 228.412 C 279.800 220.156,256.953 208.101,247.433 199.318 C 244.947 197.025,245.794 196.647,236.599 204.149 C 211.300 224.794,186.605 224.030,160.392 201.793 C 155.040 197.252,154.582 197.073,153.053 198.915 " fill="#0863e4" class="color000 svgShape"></path></svg></g></svg>